<svg width="30" height="30" viewBox="0 0 30 30" fill="none" xmlns="http://www.w3.org/2000/svg">
<mask id="path-1-inside-1_2710_10975" fill="white">
<path fill-rule="evenodd" clip-rule="evenodd" d="M4.03457 11.4355C3.37747 12.0053 3 12.8322 3 13.702V23.9009C3 25.5577 4.34315 26.9009 6 26.9009H12V20C12 19.4477 12.4477 19 13 19H17C17.5523 19 18 19.4477 18 20V26.9009H24C25.6569 26.9009 27 25.5577 27 23.9009V13.702C27 12.8322 26.6225 12.0053 25.9654 11.4355L16.9654 3.63107C15.8376 2.65309 14.1624 2.65309 13.0346 3.63107L4.03457 11.4355Z"/>
</mask>
<path d="M4.03457 11.4355L2.72429 9.92447L2.72429 9.92448L4.03457 11.4355ZM12 26.9009V28.9009H14V26.9009H12ZM18 26.9009H16V28.9009H18V26.9009ZM25.9654 11.4355L24.6551 12.9465L24.6551 12.9465L25.9654 11.4355ZM16.9654 3.63107L15.6551 5.14208L15.6551 5.14208L16.9654 3.63107ZM13.0346 3.63107L14.3449 5.14208L14.3449 5.14208L13.0346 3.63107ZM5 13.702C5 13.4121 5.12582 13.1364 5.34486 12.9465L2.72429 9.92448C1.62911 10.8742 1 12.2524 1 13.702H5ZM5 23.9009V13.702H1V23.9009H5ZM6 24.9009C5.44772 24.9009 5 24.4532 5 23.9009H1C1 26.6623 3.23858 28.9009 6 28.9009V24.9009ZM12 24.9009H6V28.9009H12V24.9009ZM14 26.9009V20H10V26.9009H14ZM14 20C14 20.5523 13.5523 21 13 21V17C11.3431 17 10 18.3431 10 20H14ZM13 21H17V17H13V21ZM17 21C16.4477 21 16 20.5523 16 20H20C20 18.3431 18.6569 17 17 17V21ZM16 20V26.9009H20V20H16ZM24 24.9009H18V28.9009H24V24.9009ZM25 23.9009C25 24.4532 24.5523 24.9009 24 24.9009V28.9009C26.7614 28.9009 29 26.6623 29 23.9009H25ZM25 13.702V23.9009H29V13.702H25ZM24.6551 12.9465C24.8742 13.1364 25 13.4121 25 13.702H29C29 12.2524 28.3709 10.8742 27.2757 9.92447L24.6551 12.9465ZM15.6551 5.14208L24.6551 12.9465L27.2757 9.92447L18.2757 2.12006L15.6551 5.14208ZM14.3449 5.14208C14.7208 4.81608 15.2792 4.81609 15.6551 5.14208L18.2757 2.12006C16.396 0.490091 13.6039 0.490093 11.7243 2.12006L14.3449 5.14208ZM5.34486 12.9465L14.3449 5.14208L11.7243 2.12006L2.72429 9.92447L5.34486 12.9465Z" fill="#0A0B0F" mask="url(#path-1-inside-1_2710_10975)"/>
</svg>
