<svg width="30" height="30" viewBox="0 0 30 30" fill="none" xmlns="http://www.w3.org/2000/svg">
<path fill-rule="evenodd" clip-rule="evenodd" d="M5 22C5 24.7614 7.23858 27 10 27H10.6951H20C22.7614 27 25 24.7614 25 22H22.1429C21.5906 22 21.1429 21.5523 21.1429 21C21.1429 20.4477 21.5906 20 22.1429 20H25V8C25 5.23857 22.7614 3 20 3H10C7.23858 3 5 5.23857 5 8V20H7.85714C8.40943 20 8.85714 20.4477 8.85714 21C8.85714 21.5523 8.40943 22 7.85714 22H5ZM18.2071 12.7929C17.8166 12.4024 17.1834 12.4024 16.7929 12.7929L15 14.5858L14.2071 13.7929C13.8166 13.4024 13.1834 13.4024 12.7929 13.7929C12.4024 14.1834 12.4024 14.8166 12.7929 15.2071L14.2929 16.7071C14.6834 17.0976 15.3166 17.0976 15.7071 16.7071L18.2071 14.2071C18.5976 13.8166 18.5976 13.1834 18.2071 12.7929ZM11 8C11 7.44772 11.4477 7 12 7H18C18.5523 7 19 7.44772 19 8C19 8.55228 18.5523 9 18 9H12C11.4477 9 11 8.55228 11 8ZM12.1429 20C11.5906 20 11.1429 20.4477 11.1429 21C11.1429 21.5523 11.5906 22 12.1429 22H17.8571C18.4094 22 18.8571 21.5523 18.8571 21C18.8571 20.4477 18.4094 20 17.8571 20H12.1429Z" fill="#0A0B0F"/>
</svg>
