<svg width="30" height="30" viewBox="0 0 30 30" fill="none" xmlns="http://www.w3.org/2000/svg">
<path fill-rule="evenodd" clip-rule="evenodd" d="M7 20V8C7 6.34315 8.34315 5 10 5H20C21.6569 5 23 6.34315 23 8V20H21C20.4477 20 20 20.4477 20 21C20 21.5523 20.4477 22 21 22L23 22C23 23.6569 21.6569 25 20 25H10C8.34315 25 7 23.6569 7 22H9C9.55228 22 10 21.5523 10 21C10 20.4477 9.55229 20 9 20H7ZM10 27C7.23858 27 5 24.7614 5 22V8C5 5.23857 7.23858 3 10 3H20C22.7614 3 25 5.23857 25 8V22C25 24.7614 22.7614 27 20 27H10ZM18.2071 12.7929C17.8166 12.4024 17.1834 12.4024 16.7929 12.7929L15 14.5858L14.2071 13.7929C13.8166 13.4024 13.1834 13.4024 12.7929 13.7929C12.4024 14.1834 12.4024 14.8166 12.7929 15.2071L14.2929 16.7071C14.6834 17.0976 15.3166 17.0976 15.7071 16.7071L18.2071 14.2071C18.5976 13.8166 18.5976 13.1834 18.2071 12.7929ZM11 8C11 7.44772 11.4477 7 12 7H18C18.5523 7 19 7.44772 19 8C19 8.55228 18.5523 9 18 9H12C11.4477 9 11 8.55228 11 8ZM13 20C12.4477 20 12 20.4477 12 21C12 21.5523 12.4477 22 13 22H17C17.5523 22 18 21.5523 18 21C18 20.4477 17.5523 20 17 20H13Z" fill="#0A0B0F"/>
</svg>
